# MagicaVoxel @ Ephtracy

# group
o 

# material
mtllib Heart.mtl
usemtl palette

# normals
vn -1 0 0
vn 1 0 0
vn 0 0 1
vn 0 0 -1
vn 0 -1 0
vn 0 1 0

# texcoords
vt 0.00195313 0.5
vt 0.138672 0.5
vt 0.853516 0.5
vt 0.865234 0.5

# verts
v 1.5 4.2 -0.1
v 1.5 4.2 -0.2
v 1.5 4.5 -0.1
v 1.5 4.5 -0.2
v 1.6 4.1 -0.1
v 1.6 4.1 -0.2
v 1.6 4.2 -0.1
v 1.6 4.2 -0.2
v 1.6 4.5 -0.1
v 1.6 4.5 -0.2
v 1.6 4.6 -0.1
v 1.6 4.6 -0.2
v 1.7 4 -0.1
v 1.7 4 -0.2
v 1.7 4.1 -0.1
v 1.7 4.1 -0.2
v 1.7 4.6 -0.1
v 1.7 4.6 -0.2
v 1.7 4.7 -0.1
v 1.7 4.7 -0.2
v 1.8 3.9 -0.1
v 1.8 3.9 -0.2
v 1.8 4 -0.1
v 1.8 4 -0.2
v 1.9 3.8 -0.1
v 1.9 3.8 -0.2
v 1.9 3.9 -0.1
v 1.9 3.9 -0.2
v 2.1 4.6 -0.1
v 2.1 4.6 -0.2
v 2.1 4.7 -0.1
v 2.1 4.7 -0.2
v 1.9 4.6 -0.1
v 1.9 4.6 -0.2
v 1.9 4.7 -0.1
v 1.9 4.7 -0.2
v 2.1 3.8 -0.1
v 2.1 3.8 -0.2
v 2.1 3.9 -0.1
v 2.1 3.9 -0.2
v 2.2 3.9 -0.1
v 2.2 3.9 -0.2
v 2.2 4 -0.1
v 2.2 4 -0.2
v 2.3 4 -0.1
v 2.3 4 -0.2
v 2.3 4.1 -0.1
v 2.3 4.1 -0.2
v 2.3 4.6 -0.1
v 2.3 4.6 -0.2
v 2.3 4.7 -0.1
v 2.3 4.7 -0.2
v 2.4 4.1 -0.1
v 2.4 4.1 -0.2
v 2.4 4.2 -0.1
v 2.4 4.2 -0.2
v 2.4 4.5 -0.1
v 2.4 4.5 -0.2
v 2.4 4.6 -0.1
v 2.4 4.6 -0.2
v 2.5 4.2 -0.1
v 2.5 4.2 -0.2
v 2.5 4.5 -0.1
v 2.5 4.5 -0.2
v 1.5 4.2 -0.1
v 1.5 4.5 -0.1
v 1.6 4.1 -0.1
v 1.6 4.2 -0.1
v 1.6 4.5 -0.1
v 1.6 4.6 -0.1
v 1.7 4 -0.1
v 1.7 4.1 -0.1
v 1.7 4.2 -0.1
v 1.7 4.3 -0.1
v 1.7 4.5 -0.1
v 1.7 4.6 -0.1
v 1.7 4.7 -0.1
v 1.8 3.9 -0.1
v 1.8 4 -0.1
v 1.8 4.1 -0.1
v 1.8 4.2 -0.1
v 1.8 4.3 -0.1
v 1.8 4.5 -0.1
v 1.9 3.8 -0.1
v 1.9 3.9 -0.1
v 1.9 4 -0.1
v 1.9 4.1 -0.1
v 1.9 4.2 -0.1
v 1.9 4.3 -0.1
v 1.9 4.5 -0.1
v 1.9 4.6 -0.1
v 1.9 4.7 -0.1
v 2 3.9 -0.1
v 2 4 -0.1
v 2 4.1 -0.1
v 2.1 3.8 -0.1
v 2.1 3.9 -0.1
v 2.1 4 -0.1
v 2.1 4.1 -0.1
v 2.1 4.5 -0.1
v 2.1 4.6 -0.1
v 2.1 4.7 -0.1
v 2.2 3.9 -0.1
v 2.2 4 -0.1
v 2.2 4.1 -0.1
v 2.2 4.2 -0.1
v 2.2 4.5 -0.1
v 2.2 4.6 -0.1
v 2.3 4 -0.1
v 2.3 4.1 -0.1
v 2.3 4.2 -0.1
v 2.3 4.5 -0.1
v 2.3 4.6 -0.1
v 2.3 4.7 -0.1
v 2.4 4.1 -0.1
v 2.4 4.2 -0.1
v 2.4 4.5 -0.1
v 2.4 4.6 -0.1
v 2.5 4.2 -0.1
v 2.5 4.5 -0.1
v 1.5 4.2 -0.2
v 1.5 4.5 -0.2
v 1.6 4.1 -0.2
v 1.6 4.2 -0.2
v 1.6 4.5 -0.2
v 1.6 4.6 -0.2
v 1.7 4 -0.2
v 1.7 4.1 -0.2
v 1.7 4.2 -0.2
v 1.7 4.3 -0.2
v 1.7 4.5 -0.2
v 1.7 4.6 -0.2
v 1.7 4.7 -0.2
v 1.8 3.9 -0.2
v 1.8 4 -0.2
v 1.8 4.1 -0.2
v 1.8 4.2 -0.2
v 1.8 4.3 -0.2
v 1.8 4.5 -0.2
v 1.9 3.8 -0.2
v 1.9 3.9 -0.2
v 1.9 4 -0.2
v 1.9 4.1 -0.2
v 1.9 4.2 -0.2
v 1.9 4.3 -0.2
v 1.9 4.5 -0.2
v 1.9 4.6 -0.2
v 1.9 4.7 -0.2
v 2 3.9 -0.2
v 2 4 -0.2
v 2 4.1 -0.2
v 2.1 3.8 -0.2
v 2.1 3.9 -0.2
v 2.1 4 -0.2
v 2.1 4.1 -0.2
v 2.1 4.5 -0.2
v 2.1 4.6 -0.2
v 2.1 4.7 -0.2
v 2.2 3.9 -0.2
v 2.2 4 -0.2
v 2.2 4.1 -0.2
v 2.2 4.2 -0.2
v 2.2 4.5 -0.2
v 2.2 4.6 -0.2
v 2.3 4 -0.2
v 2.3 4.1 -0.2
v 2.3 4.2 -0.2
v 2.3 4.5 -0.2
v 2.3 4.6 -0.2
v 2.3 4.7 -0.2
v 2.4 4.1 -0.2
v 2.4 4.2 -0.2
v 2.4 4.5 -0.2
v 2.4 4.6 -0.2
v 2.5 4.2 -0.2
v 2.5 4.5 -0.2
v 1.9 3.8 -0.1
v 2.1 3.8 -0.1
v 1.9 3.8 -0.2
v 2.1 3.8 -0.2
v 1.8 3.9 -0.1
v 1.9 3.9 -0.1
v 2.1 3.9 -0.1
v 2.2 3.9 -0.1
v 1.8 3.9 -0.2
v 1.9 3.9 -0.2
v 2.1 3.9 -0.2
v 2.2 3.9 -0.2
v 1.7 4 -0.1
v 1.8 4 -0.1
v 2.2 4 -0.1
v 2.3 4 -0.1
v 1.7 4 -0.2
v 1.8 4 -0.2
v 2.2 4 -0.2
v 2.3 4 -0.2
v 1.6 4.1 -0.1
v 1.7 4.1 -0.1
v 2.3 4.1 -0.1
v 2.4 4.1 -0.1
v 1.6 4.1 -0.2
v 1.7 4.1 -0.2
v 2.3 4.1 -0.2
v 2.4 4.1 -0.2
v 1.5 4.2 -0.1
v 1.6 4.2 -0.1
v 2.4 4.2 -0.1
v 2.5 4.2 -0.1
v 1.5 4.2 -0.2
v 1.6 4.2 -0.2
v 2.4 4.2 -0.2
v 2.5 4.2 -0.2
v 1.5 4.5 -0.1
v 1.6 4.5 -0.1
v 2.4 4.5 -0.1
v 2.5 4.5 -0.1
v 1.5 4.5 -0.2
v 1.6 4.5 -0.2
v 2.4 4.5 -0.2
v 2.5 4.5 -0.2
v 1.6 4.6 -0.1
v 1.7 4.6 -0.1
v 1.9 4.6 -0.1
v 2.1 4.6 -0.1
v 2.3 4.6 -0.1
v 2.4 4.6 -0.1
v 1.6 4.6 -0.2
v 1.7 4.6 -0.2
v 1.9 4.6 -0.2
v 2.1 4.6 -0.2
v 2.3 4.6 -0.2
v 2.4 4.6 -0.2
v 1.7 4.7 -0.1
v 1.9 4.7 -0.1
v 2.1 4.7 -0.1
v 2.3 4.7 -0.1
v 1.7 4.7 -0.2
v 1.9 4.7 -0.2
v 2.1 4.7 -0.2
v 2.3 4.7 -0.2

# faces
f 3/4/1 2/4/1 1/4/1
f 4/4/1 2/4/1 3/4/1
f 7/4/1 6/4/1 5/4/1
f 8/4/1 6/4/1 7/4/1
f 11/4/1 10/4/1 9/4/1
f 12/4/1 10/4/1 11/4/1
f 15/4/1 14/4/1 13/4/1
f 16/4/1 14/4/1 15/4/1
f 19/4/1 18/4/1 17/4/1
f 20/4/1 18/4/1 19/4/1
f 23/4/1 22/4/1 21/4/1
f 24/4/1 22/4/1 23/4/1
f 27/4/1 26/4/1 25/4/1
f 28/4/1 26/4/1 27/4/1
f 31/4/1 30/4/1 29/4/1
f 32/4/1 30/4/1 31/4/1
f 33/4/2 34/4/2 35/4/2
f 35/4/2 34/4/2 36/4/2
f 37/4/2 38/4/2 39/4/2
f 39/4/2 38/4/2 40/4/2
f 41/4/2 42/4/2 43/4/2
f 43/4/2 42/4/2 44/4/2
f 45/4/2 46/4/2 47/4/2
f 47/4/2 46/4/2 48/4/2
f 49/4/2 50/4/2 51/4/2
f 51/4/2 50/4/2 52/4/2
f 53/4/2 54/4/2 55/4/2
f 55/4/2 54/4/2 56/4/2
f 57/4/2 58/4/2 59/4/2
f 59/4/2 58/4/2 60/4/2
f 61/4/2 62/4/2 63/4/2
f 63/4/2 62/4/2 64/4/2
f 68/4/3 66/4/3 65/4/3
f 69/4/3 66/4/3 68/4/3
f 72/4/3 68/4/3 67/4/3
f 73/2/3 69/2/3 68/2/3
f 73/4/3 68/4/3 72/4/3
f 74/2/3 69/2/3 73/2/3
f 75/4/3 70/4/3 69/4/3
f 75/2/3 69/2/3 74/2/3
f 76/4/3 70/4/3 75/4/3
f 79/4/3 72/4/3 71/4/3
f 80/2/3 74/2/3 73/2/3
f 80/2/3 73/2/3 72/2/3
f 80/4/3 72/4/3 79/4/3
f 81/2/3 74/2/3 80/2/3
f 82/1/3 75/1/3 74/1/3
f 82/2/3 74/2/3 81/2/3
f 83/2/3 76/2/3 75/2/3
f 83/1/3 75/1/3 82/1/3
f 85/4/3 79/4/3 78/4/3
f 86/2/3 81/2/3 80/2/3
f 86/2/3 80/2/3 79/2/3
f 86/4/3 79/4/3 85/4/3
f 87/2/3 81/2/3 86/2/3
f 88/1/3 82/1/3 81/1/3
f 88/2/3 81/2/3 87/2/3
f 89/2/3 83/2/3 82/2/3
f 89/1/3 82/1/3 88/1/3
f 90/2/3 76/2/3 83/2/3
f 90/2/3 83/2/3 89/2/3
f 91/4/3 77/4/3 76/4/3
f 91/2/3 76/2/3 90/2/3
f 92/4/3 77/4/3 91/4/3
f 93/4/3 85/4/3 84/4/3
f 93/2/3 86/2/3 85/2/3
f 94/1/3 87/1/3 86/1/3
f 94/2/3 86/2/3 93/2/3
f 95/2/3 89/2/3 88/2/3
f 95/1/3 87/1/3 94/1/3
f 95/2/3 90/2/3 89/2/3
f 95/2/3 88/2/3 87/2/3
f 96/4/3 93/4/3 84/4/3
f 97/3/3 94/3/3 93/3/3
f 97/4/3 93/4/3 96/4/3
f 98/2/3 95/2/3 94/2/3
f 98/3/3 94/3/3 97/3/3
f 99/2/3 90/2/3 95/2/3
f 99/2/3 95/2/3 98/2/3
f 100/4/3 91/4/3 90/4/3
f 100/2/3 90/2/3 99/2/3
f 101/4/3 91/4/3 100/4/3
f 103/4/3 98/4/3 97/4/3
f 104/3/3 99/3/3 98/3/3
f 104/4/3 98/4/3 103/4/3
f 105/2/3 101/2/3 100/2/3
f 105/3/3 99/3/3 104/3/3
f 105/2/3 100/2/3 99/2/3
f 106/2/3 101/2/3 105/2/3
f 107/2/3 101/2/3 106/2/3
f 108/4/3 102/4/3 101/4/3
f 108/2/3 101/2/3 107/2/3
f 109/4/3 105/4/3 104/4/3
f 110/3/3 106/3/3 105/3/3
f 110/4/3 105/4/3 109/4/3
f 111/2/3 107/2/3 106/2/3
f 111/3/3 106/3/3 110/3/3
f 112/3/3 108/3/3 107/3/3
f 112/2/3 107/2/3 111/2/3
f 113/4/3 102/4/3 108/4/3
f 113/3/3 108/3/3 112/3/3
f 114/4/3 102/4/3 113/4/3
f 115/4/3 111/4/3 110/4/3
f 116/3/3 112/3/3 111/3/3
f 116/4/3 111/4/3 115/4/3
f 117/4/3 113/4/3 112/4/3
f 117/3/3 112/3/3 116/3/3
f 118/4/3 113/4/3 117/4/3
f 119/4/3 117/4/3 116/4/3
f 120/4/3 117/4/3 119/4/3
f 121/4/4 122/4/4 124/4/4
f 124/4/4 122/4/4 125/4/4
f 123/4/4 124/4/4 128/4/4
f 124/2/4 125/2/4 129/2/4
f 128/4/4 124/4/4 129/4/4
f 129/2/4 125/2/4 130/2/4
f 125/4/4 126/4/4 131/4/4
f 130/2/4 125/2/4 131/2/4
f 131/4/4 126/4/4 132/4/4
f 127/4/4 128/4/4 135/4/4
f 129/2/4 130/2/4 136/2/4
f 128/2/4 129/2/4 136/2/4
f 135/4/4 128/4/4 136/4/4
f 136/2/4 130/2/4 137/2/4
f 130/1/4 131/1/4 138/1/4
f 137/2/4 130/2/4 138/2/4
f 131/2/4 132/2/4 139/2/4
f 138/1/4 131/1/4 139/1/4
f 134/4/4 135/4/4 141/4/4
f 136/2/4 137/2/4 142/2/4
f 135/2/4 136/2/4 142/2/4
f 141/4/4 135/4/4 142/4/4
f 142/2/4 137/2/4 143/2/4
f 137/1/4 138/1/4 144/1/4
f 143/2/4 137/2/4 144/2/4
f 138/2/4 139/2/4 145/2/4
f 144/1/4 138/1/4 145/1/4
f 139/2/4 132/2/4 146/2/4
f 145/2/4 139/2/4 146/2/4
f 132/4/4 133/4/4 147/4/4
f 146/2/4 132/2/4 147/2/4
f 147/4/4 133/4/4 148/4/4
f 140/4/4 141/4/4 149/4/4
f 141/2/4 142/2/4 149/2/4
f 142/1/4 143/1/4 150/1/4
f 149/2/4 142/2/4 150/2/4
f 144/2/4 145/2/4 151/2/4
f 150/1/4 143/1/4 151/1/4
f 145/2/4 146/2/4 151/2/4
f 143/2/4 144/2/4 151/2/4
f 140/4/4 149/4/4 152/4/4
f 149/3/4 150/3/4 153/3/4
f 152/4/4 149/4/4 153/4/4
f 150/2/4 151/2/4 154/2/4
f 153/3/4 150/3/4 154/3/4
f 151/2/4 146/2/4 155/2/4
f 154/2/4 151/2/4 155/2/4
f 146/4/4 147/4/4 156/4/4
f 155/2/4 146/2/4 156/2/4
f 156/4/4 147/4/4 157/4/4
f 153/4/4 154/4/4 159/4/4
f 154/3/4 155/3/4 160/3/4
f 159/4/4 154/4/4 160/4/4
f 156/2/4 157/2/4 161/2/4
f 160/3/4 155/3/4 161/3/4
f 155/2/4 156/2/4 161/2/4
f 161/2/4 157/2/4 162/2/4
f 162/2/4 157/2/4 163/2/4
f 157/4/4 158/4/4 164/4/4
f 163/2/4 157/2/4 164/2/4
f 160/4/4 161/4/4 165/4/4
f 161/3/4 162/3/4 166/3/4
f 165/4/4 161/4/4 166/4/4
f 162/2/4 163/2/4 167/2/4
f 166/3/4 162/3/4 167/3/4
f 163/3/4 164/3/4 168/3/4
f 167/2/4 163/2/4 168/2/4
f 164/4/4 158/4/4 169/4/4
f 168/3/4 164/3/4 169/3/4
f 169/4/4 158/4/4 170/4/4
f 166/4/4 167/4/4 171/4/4
f 167/3/4 168/3/4 172/3/4
f 171/4/4 167/4/4 172/4/4
f 168/4/4 169/4/4 173/4/4
f 172/3/4 168/3/4 173/3/4
f 173/4/4 169/4/4 174/4/4
f 172/4/4 173/4/4 175/4/4
f 175/4/4 173/4/4 176/4/4
f 179/4/5 178/4/5 177/4/5
f 180/4/5 178/4/5 179/4/5
f 185/4/5 182/4/5 181/4/5
f 186/4/5 182/4/5 185/4/5
f 187/4/5 184/4/5 183/4/5
f 188/4/5 184/4/5 187/4/5
f 193/4/5 190/4/5 189/4/5
f 194/4/5 190/4/5 193/4/5
f 195/4/5 192/4/5 191/4/5
f 196/4/5 192/4/5 195/4/5
f 201/4/5 198/4/5 197/4/5
f 202/4/5 198/4/5 201/4/5
f 203/4/5 200/4/5 199/4/5
f 204/4/5 200/4/5 203/4/5
f 209/4/5 206/4/5 205/4/5
f 210/4/5 206/4/5 209/4/5
f 211/4/5 208/4/5 207/4/5
f 212/4/5 208/4/5 211/4/5
f 213/4/6 214/4/6 217/4/6
f 217/4/6 214/4/6 218/4/6
f 215/4/6 216/4/6 219/4/6
f 219/4/6 216/4/6 220/4/6
f 221/4/6 222/4/6 227/4/6
f 227/4/6 222/4/6 228/4/6
f 223/4/6 224/4/6 229/4/6
f 229/4/6 224/4/6 230/4/6
f 225/4/6 226/4/6 231/4/6
f 231/4/6 226/4/6 232/4/6
f 233/4/6 234/4/6 237/4/6
f 237/4/6 234/4/6 238/4/6
f 235/4/6 236/4/6 239/4/6
f 239/4/6 236/4/6 240/4/6
