# MagicaVoxel @ Ephtracy

# group
o 

# material
mtllib star_voxel.mtl
usemtl palette

# normals
vn -1 0 0
vn 1 0 0
vn 0 0 1
vn 0 0 -1
vn 0 -1 0
vn 0 1 0

# texcoords
vt 0.00195313 0.5
vt 0.0214844 0.5
vt 0.0410156 0.5
vt 0.0683594 0.5

# verts
v 2.4 4.5 -1
v 2.4 4.5 -1.1
v 2.4 4.7 -1
v 2.4 4.7 -1.1
v 2.5 4.4 -1
v 2.5 4.4 -1.1
v 2.5 4.5 -1
v 2.5 4.5 -1.1
v 2.6 4 -1
v 2.6 4 -1.1
v 2.6 4.4 -1
v 2.6 4.4 -1.1
v 2.7 4.7 -1
v 2.7 4.7 -1.1
v 2.7 4.8 -1
v 2.7 4.8 -1.1
v 2.8 4.8 -1
v 2.8 4.8 -1.1
v 2.8 4.9 -1
v 2.8 4.9 -1.1
v 2.9 4.9 -1
v 2.9 4.9 -1.1
v 2.9 5 -1
v 2.9 5 -1.1
v 3 4.1 -1
v 3 4.1 -1.1
v 3 4.2 -1
v 3 4.2 -1.1
v 3.1 4 -1
v 3.1 4 -1.1
v 3.1 4.1 -1
v 3.1 4.1 -1.1
v 2.8 4 -1
v 2.8 4 -1.1
v 2.8 4.1 -1
v 2.8 4.1 -1.1
v 2.9 4.1 -1
v 2.9 4.1 -1.1
v 2.9 4.2 -1
v 2.9 4.2 -1.1
v 3 4.9 -1
v 3 4.9 -1.1
v 3 5 -1
v 3 5 -1.1
v 3.1 4.8 -1
v 3.1 4.8 -1.1
v 3.1 4.9 -1
v 3.1 4.9 -1.1
v 3.2 4.7 -1
v 3.2 4.7 -1.1
v 3.2 4.8 -1
v 3.2 4.8 -1.1
v 3.3 4 -1
v 3.3 4 -1.1
v 3.3 4.4 -1
v 3.3 4.4 -1.1
v 3.4 4.4 -1
v 3.4 4.4 -1.1
v 3.4 4.5 -1
v 3.4 4.5 -1.1
v 3.5 4.5 -1
v 3.5 4.5 -1.1
v 3.5 4.7 -1
v 3.5 4.7 -1.1
v 2.4 4.5 -1
v 2.4 4.7 -1
v 2.5 4.4 -1
v 2.5 4.5 -1
v 2.5 4.6 -1
v 2.6 4 -1
v 2.6 4.4 -1
v 2.6 4.5 -1
v 2.7 4.1 -1
v 2.7 4.3 -1
v 2.7 4.4 -1
v 2.7 4.7 -1
v 2.7 4.8 -1
v 2.8 4 -1
v 2.8 4.1 -1
v 2.8 4.2 -1
v 2.8 4.4 -1
v 2.8 4.6 -1
v 2.8 4.7 -1
v 2.8 4.8 -1
v 2.8 4.9 -1
v 2.9 4.1 -1
v 2.9 4.2 -1
v 2.9 4.3 -1
v 2.9 4.4 -1
v 2.9 4.6 -1
v 2.9 4.7 -1
v 2.9 4.8 -1
v 2.9 4.9 -1
v 2.9 5 -1
v 3 4.1 -1
v 3 4.2 -1
v 3 4.3 -1
v 3 4.4 -1
v 3 4.7 -1
v 3 4.8 -1
v 3 4.9 -1
v 3 5 -1
v 3.1 4 -1
v 3.1 4.1 -1
v 3.1 4.2 -1
v 3.1 4.6 -1
v 3.1 4.7 -1
v 3.1 4.8 -1
v 3.1 4.9 -1
v 3.2 4.1 -1
v 3.2 4.3 -1
v 3.2 4.4 -1
v 3.2 4.7 -1
v 3.2 4.8 -1
v 3.3 4 -1
v 3.3 4.4 -1
v 3.3 4.5 -1
v 3.4 4.4 -1
v 3.4 4.5 -1
v 3.4 4.6 -1
v 3.5 4.5 -1
v 3.5 4.7 -1
v 2.4 4.5 -1.1
v 2.4 4.7 -1.1
v 2.5 4.4 -1.1
v 2.5 4.5 -1.1
v 2.5 4.6 -1.1
v 2.6 4 -1.1
v 2.6 4.4 -1.1
v 2.6 4.5 -1.1
v 2.7 4.1 -1.1
v 2.7 4.3 -1.1
v 2.7 4.4 -1.1
v 2.7 4.7 -1.1
v 2.7 4.8 -1.1
v 2.8 4 -1.1
v 2.8 4.1 -1.1
v 2.8 4.2 -1.1
v 2.8 4.4 -1.1
v 2.8 4.6 -1.1
v 2.8 4.7 -1.1
v 2.8 4.8 -1.1
v 2.8 4.9 -1.1
v 2.9 4.1 -1.1
v 2.9 4.2 -1.1
v 2.9 4.3 -1.1
v 2.9 4.4 -1.1
v 2.9 4.6 -1.1
v 2.9 4.7 -1.1
v 2.9 4.8 -1.1
v 2.9 4.9 -1.1
v 2.9 5 -1.1
v 3 4.1 -1.1
v 3 4.2 -1.1
v 3 4.3 -1.1
v 3 4.4 -1.1
v 3 4.7 -1.1
v 3 4.8 -1.1
v 3 4.9 -1.1
v 3 5 -1.1
v 3.1 4 -1.1
v 3.1 4.1 -1.1
v 3.1 4.2 -1.1
v 3.1 4.6 -1.1
v 3.1 4.7 -1.1
v 3.1 4.8 -1.1
v 3.1 4.9 -1.1
v 3.2 4.1 -1.1
v 3.2 4.3 -1.1
v 3.2 4.4 -1.1
v 3.2 4.7 -1.1
v 3.2 4.8 -1.1
v 3.3 4 -1.1
v 3.3 4.4 -1.1
v 3.3 4.5 -1.1
v 3.4 4.4 -1.1
v 3.4 4.5 -1.1
v 3.4 4.6 -1.1
v 3.5 4.5 -1.1
v 3.5 4.7 -1.1
v 2.6 4 -1
v 2.8 4 -1
v 3.1 4 -1
v 3.3 4 -1
v 2.6 4 -1.1
v 2.8 4 -1.1
v 3.1 4 -1.1
v 3.3 4 -1.1
v 2.8 4.1 -1
v 2.9 4.1 -1
v 3 4.1 -1
v 3.1 4.1 -1
v 2.8 4.1 -1.1
v 2.9 4.1 -1.1
v 3 4.1 -1.1
v 3.1 4.1 -1.1
v 2.9 4.2 -1
v 3 4.2 -1
v 2.9 4.2 -1.1
v 3 4.2 -1.1
v 2.5 4.4 -1
v 2.6 4.4 -1
v 3.3 4.4 -1
v 3.4 4.4 -1
v 2.5 4.4 -1.1
v 2.6 4.4 -1.1
v 3.3 4.4 -1.1
v 3.4 4.4 -1.1
v 2.4 4.5 -1
v 2.5 4.5 -1
v 3.4 4.5 -1
v 3.5 4.5 -1
v 2.4 4.5 -1.1
v 2.5 4.5 -1.1
v 3.4 4.5 -1.1
v 3.5 4.5 -1.1
v 2.4 4.7 -1
v 2.7 4.7 -1
v 3.2 4.7 -1
v 3.5 4.7 -1
v 2.4 4.7 -1.1
v 2.7 4.7 -1.1
v 3.2 4.7 -1.1
v 3.5 4.7 -1.1
v 2.7 4.8 -1
v 2.8 4.8 -1
v 3.1 4.8 -1
v 3.2 4.8 -1
v 2.7 4.8 -1.1
v 2.8 4.8 -1.1
v 3.1 4.8 -1.1
v 3.2 4.8 -1.1
v 2.8 4.9 -1
v 2.9 4.9 -1
v 3 4.9 -1
v 3.1 4.9 -1
v 2.8 4.9 -1.1
v 2.9 4.9 -1.1
v 3 4.9 -1.1
v 3.1 4.9 -1.1
v 2.9 5 -1
v 3 5 -1
v 2.9 5 -1.1
v 3 5 -1.1

# faces
f 3/4/1 2/4/1 1/4/1
f 4/4/1 2/4/1 3/4/1
f 7/4/1 6/4/1 5/4/1
f 8/4/1 6/4/1 7/4/1
f 11/4/1 10/4/1 9/4/1
f 12/4/1 10/4/1 11/4/1
f 15/4/1 14/4/1 13/4/1
f 16/4/1 14/4/1 15/4/1
f 19/4/1 18/4/1 17/4/1
f 20/4/1 18/4/1 19/4/1
f 23/4/1 22/4/1 21/4/1
f 24/4/1 22/4/1 23/4/1
f 27/4/1 26/4/1 25/4/1
f 28/4/1 26/4/1 27/4/1
f 31/4/1 30/4/1 29/4/1
f 32/4/1 30/4/1 31/4/1
f 33/4/2 34/4/2 35/4/2
f 35/4/2 34/4/2 36/4/2
f 37/4/2 38/4/2 39/4/2
f 39/4/2 38/4/2 40/4/2
f 41/4/2 42/4/2 43/4/2
f 43/4/2 42/4/2 44/4/2
f 45/4/2 46/4/2 47/4/2
f 47/4/2 46/4/2 48/4/2
f 49/4/2 50/4/2 51/4/2
f 51/4/2 50/4/2 52/4/2
f 53/4/2 54/4/2 55/4/2
f 55/4/2 54/4/2 56/4/2
f 57/4/2 58/4/2 59/4/2
f 59/4/2 58/4/2 60/4/2
f 61/4/2 62/4/2 63/4/2
f 63/4/2 62/4/2 64/4/2
f 68/4/3 66/4/3 65/4/3
f 69/4/3 66/4/3 68/4/3
f 71/4/3 68/4/3 67/4/3
f 72/2/3 69/2/3 68/2/3
f 72/4/3 68/4/3 71/4/3
f 73/4/3 71/4/3 70/4/3
f 74/4/3 71/4/3 73/4/3
f 75/2/3 72/2/3 71/2/3
f 75/4/3 71/4/3 74/4/3
f 76/4/3 66/4/3 69/4/3
f 78/4/3 73/4/3 70/4/3
f 79/3/3 74/3/3 73/3/3
f 79/4/3 73/4/3 78/4/3
f 80/3/3 74/3/3 79/3/3
f 81/2/3 72/2/3 75/2/3
f 81/2/3 75/2/3 74/2/3
f 82/2/3 69/2/3 72/2/3
f 82/2/3 72/2/3 81/2/3
f 82/4/3 77/4/3 76/4/3
f 82/4/3 76/4/3 69/4/3
f 83/4/3 77/4/3 82/4/3
f 84/4/3 77/4/3 83/4/3
f 86/4/3 80/4/3 79/4/3
f 87/3/3 74/3/3 80/3/3
f 87/4/3 80/4/3 86/4/3
f 88/2/3 81/2/3 74/2/3
f 88/3/3 74/3/3 87/3/3
f 89/1/3 82/1/3 81/1/3
f 89/2/3 81/2/3 88/2/3
f 90/2/3 83/2/3 82/2/3
f 90/1/3 82/1/3 89/1/3
f 91/3/3 84/3/3 83/3/3
f 91/2/3 83/2/3 90/2/3
f 92/4/3 85/4/3 84/4/3
f 92/3/3 84/3/3 91/3/3
f 93/4/3 85/4/3 92/4/3
f 96/4/3 88/4/3 87/4/3
f 97/1/3 89/1/3 88/1/3
f 97/4/3 88/4/3 96/4/3
f 98/2/3 91/2/3 90/2/3
f 98/1/3 89/1/3 97/1/3
f 98/2/3 90/2/3 89/2/3
f 98/2/3 93/2/3 92/2/3
f 98/2/3 92/2/3 91/2/3
f 99/2/3 93/2/3 98/2/3
f 100/2/3 93/2/3 99/2/3
f 101/4/3 94/4/3 93/4/3
f 101/2/3 93/2/3 100/2/3
f 102/4/3 94/4/3 101/4/3
f 104/4/3 96/4/3 95/4/3
f 105/3/3 97/3/3 96/3/3
f 105/4/3 96/4/3 104/4/3
f 106/2/3 98/2/3 97/2/3
f 106/2/3 99/2/3 98/2/3
f 107/3/3 100/3/3 99/3/3
f 107/2/3 99/2/3 106/2/3
f 108/4/3 101/4/3 100/4/3
f 108/3/3 100/3/3 107/3/3
f 109/4/3 101/4/3 108/4/3
f 110/4/3 104/4/3 103/4/3
f 110/3/3 105/3/3 104/3/3
f 111/2/3 106/2/3 97/2/3
f 111/3/3 105/3/3 110/3/3
f 111/3/3 97/3/3 105/3/3
f 112/2/3 106/2/3 111/2/3
f 113/4/3 108/4/3 107/4/3
f 113/4/3 107/4/3 106/4/3
f 114/4/3 108/4/3 113/4/3
f 115/4/3 110/4/3 103/4/3
f 115/4/3 112/4/3 111/4/3
f 115/4/3 111/4/3 110/4/3
f 116/2/3 106/2/3 112/2/3
f 116/4/3 112/4/3 115/4/3
f 117/2/3 106/2/3 116/2/3
f 118/4/3 117/4/3 116/4/3
f 119/2/3 106/2/3 117/2/3
f 119/4/3 117/4/3 118/4/3
f 120/4/3 113/4/3 106/4/3
f 120/2/3 106/2/3 119/2/3
f 121/4/3 120/4/3 119/4/3
f 122/4/3 113/4/3 120/4/3
f 122/4/3 120/4/3 121/4/3
f 123/4/4 124/4/4 126/4/4
f 126/4/4 124/4/4 127/4/4
f 125/4/4 126/4/4 129/4/4
f 126/2/4 127/2/4 130/2/4
f 129/4/4 126/4/4 130/4/4
f 128/4/4 129/4/4 131/4/4
f 131/4/4 129/4/4 132/4/4
f 129/2/4 130/2/4 133/2/4
f 132/4/4 129/4/4 133/4/4
f 127/4/4 124/4/4 134/4/4
f 128/4/4 131/4/4 136/4/4
f 131/3/4 132/3/4 137/3/4
f 136/4/4 131/4/4 137/4/4
f 137/3/4 132/3/4 138/3/4
f 133/2/4 130/2/4 139/2/4
f 132/2/4 133/2/4 139/2/4
f 130/2/4 127/2/4 140/2/4
f 139/2/4 130/2/4 140/2/4
f 134/4/4 135/4/4 140/4/4
f 127/4/4 134/4/4 140/4/4
f 140/4/4 135/4/4 141/4/4
f 141/4/4 135/4/4 142/4/4
f 137/4/4 138/4/4 144/4/4
f 138/3/4 132/3/4 145/3/4
f 144/4/4 138/4/4 145/4/4
f 132/2/4 139/2/4 146/2/4
f 145/3/4 132/3/4 146/3/4
f 139/1/4 140/1/4 147/1/4
f 146/2/4 139/2/4 147/2/4
f 140/2/4 141/2/4 148/2/4
f 147/1/4 140/1/4 148/1/4
f 141/3/4 142/3/4 149/3/4
f 148/2/4 141/2/4 149/2/4
f 142/4/4 143/4/4 150/4/4
f 149/3/4 142/3/4 150/3/4
f 150/4/4 143/4/4 151/4/4
f 145/4/4 146/4/4 154/4/4
f 146/1/4 147/1/4 155/1/4
f 154/4/4 146/4/4 155/4/4
f 148/2/4 149/2/4 156/2/4
f 155/1/4 147/1/4 156/1/4
f 147/2/4 148/2/4 156/2/4
f 150/2/4 151/2/4 156/2/4
f 149/2/4 150/2/4 156/2/4
f 156/2/4 151/2/4 157/2/4
f 157/2/4 151/2/4 158/2/4
f 151/4/4 152/4/4 159/4/4
f 158/2/4 151/2/4 159/2/4
f 159/4/4 152/4/4 160/4/4
f 153/4/4 154/4/4 162/4/4
f 154/3/4 155/3/4 163/3/4
f 162/4/4 154/4/4 163/4/4
f 155/2/4 156/2/4 164/2/4
f 156/2/4 157/2/4 164/2/4
f 157/3/4 158/3/4 165/3/4
f 164/2/4 157/2/4 165/2/4
f 158/4/4 159/4/4 166/4/4
f 165/3/4 158/3/4 166/3/4
f 166/4/4 159/4/4 167/4/4
f 161/4/4 162/4/4 168/4/4
f 162/3/4 163/3/4 168/3/4
f 155/2/4 164/2/4 169/2/4
f 168/3/4 163/3/4 169/3/4
f 163/3/4 155/3/4 169/3/4
f 169/2/4 164/2/4 170/2/4
f 165/4/4 166/4/4 171/4/4
f 164/4/4 165/4/4 171/4/4
f 171/4/4 166/4/4 172/4/4
f 161/4/4 168/4/4 173/4/4
f 169/4/4 170/4/4 173/4/4
f 168/4/4 169/4/4 173/4/4
f 170/2/4 164/2/4 174/2/4
f 173/4/4 170/4/4 174/4/4
f 174/2/4 164/2/4 175/2/4
f 174/4/4 175/4/4 176/4/4
f 175/2/4 164/2/4 177/2/4
f 176/4/4 175/4/4 177/4/4
f 164/4/4 171/4/4 178/4/4
f 177/2/4 164/2/4 178/2/4
f 177/4/4 178/4/4 179/4/4
f 178/4/4 171/4/4 180/4/4
f 179/4/4 178/4/4 180/4/4
f 185/4/5 182/4/5 181/4/5
f 186/4/5 182/4/5 185/4/5
f 187/4/5 184/4/5 183/4/5
f 188/4/5 184/4/5 187/4/5
f 193/4/5 190/4/5 189/4/5
f 194/4/5 190/4/5 193/4/5
f 195/4/5 192/4/5 191/4/5
f 196/4/5 192/4/5 195/4/5
f 199/4/5 198/4/5 197/4/5
f 200/4/5 198/4/5 199/4/5
f 205/4/5 202/4/5 201/4/5
f 206/4/5 202/4/5 205/4/5
f 207/4/5 204/4/5 203/4/5
f 208/4/5 204/4/5 207/4/5
f 213/4/5 210/4/5 209/4/5
f 214/4/5 210/4/5 213/4/5
f 215/4/5 212/4/5 211/4/5
f 216/4/5 212/4/5 215/4/5
f 217/4/6 218/4/6 221/4/6
f 221/4/6 218/4/6 222/4/6
f 219/4/6 220/4/6 223/4/6
f 223/4/6 220/4/6 224/4/6
f 225/4/6 226/4/6 229/4/6
f 229/4/6 226/4/6 230/4/6
f 227/4/6 228/4/6 231/4/6
f 231/4/6 228/4/6 232/4/6
f 233/4/6 234/4/6 237/4/6
f 237/4/6 234/4/6 238/4/6
f 235/4/6 236/4/6 239/4/6
f 239/4/6 236/4/6 240/4/6
f 241/4/6 242/4/6 243/4/6
f 243/4/6 242/4/6 244/4/6
