# MagicaVoxel @ Ephtracy

# group
o 

# material
mtllib Miso_voxel.mtl
usemtl palette

# normals
vn -1 0 0
vn 1 0 0
vn 0 0 1
vn 0 0 -1
vn 0 -1 0
vn 0 1 0

# texcoords
vt 0.00976563 0.5
vt 0.0917969 0.5
vt 0.958984 0.5
vt 0.994141 0.5

# verts
v 0.6 4 0
v 0.6 4 -0.1
v 0.6 4.1 0
v 0.6 4.1 -0.1
v 0.7 3.9 0
v 0.7 3.9 -0.1
v 0.7 4 0
v 0.7 4 -0.1
v 0.7 4.1 0
v 0.7 4.1 -0.1
v 0.7 4.2 0
v 0.7 4.2 -0.1
v 0.8 4.5 0
v 0.8 4.5 -0.1
v 0.8 4.8 0
v 0.8 4.8 -0.1
v 0.9 4.1 0
v 0.9 4.1 -0.1
v 0.9 4.5 0
v 0.9 4.5 -0.1
v 0.9 4.8 0
v 0.9 4.8 -0.1
v 0.9 5 0
v 0.9 5 -0.1
v 1.7 4.1 0
v 1.7 4.1 -0.1
v 1.7 4.2 0
v 1.7 4.2 -0.1
v 1.7 4.5 0
v 1.7 4.5 -0.1
v 1.7 4.7 0
v 1.7 4.7 -0.1
v 1.8 4.7 0
v 1.8 4.7 -0.1
v 1.8 4.9 0
v 1.8 4.9 -0.1
v 1.9 4.9 0
v 1.9 4.9 -0.1
v 1.9 5 0
v 1.9 5 -0.1
v 2.4 4.7 0
v 2.4 4.7 -0.1
v 2.4 5 0
v 2.4 5 -0.1
v 3.2 4.9 0
v 3.2 4.9 -0.1
v 3.2 5 0
v 3.2 5 -0.1
v 3.3 4.8 0
v 3.3 4.8 -0.1
v 3.3 4.9 0
v 3.3 4.9 -0.1
v 3.3 5 0
v 3.3 5 -0.1
v 3.3 5.1 0
v 3.3 5.1 -0.1
v 0.8 3.9 0
v 0.8 3.9 -0.1
v 0.8 4 0
v 0.8 4 -0.1
v 0.8 4.1 0
v 0.8 4.1 -0.1
v 0.8 4.2 0
v 0.8 4.2 -0.1
v 0.9 4 0
v 0.9 4 -0.1
v 0.9 4.1 0
v 0.9 4.1 -0.1
v 1.2 4.1 0
v 1.2 4.1 -0.1
v 1.2 4.2 0
v 1.2 4.2 -0.1
v 1.2 4.9 0
v 1.2 4.9 -0.1
v 1.2 5 0
v 1.2 5 -0.1
v 1.5 4.5 0
v 1.5 4.5 -0.1
v 1.5 4.6 0
v 1.5 4.6 -0.1
v 1.6 4.6 0
v 1.6 4.6 -0.1
v 1.6 4.9 0
v 1.6 4.9 -0.1
v 2.2 4.9 0
v 2.2 4.9 -0.1
v 2.2 5 0
v 2.2 5 -0.1
v 2.3 4.7 0
v 2.3 4.7 -0.1
v 2.3 4.9 0
v 2.3 4.9 -0.1
v 2.7 4.1 0
v 2.7 4.1 -0.1
v 2.7 4.3 0
v 2.7 4.3 -0.1
v 2.7 4.9 0
v 2.7 4.9 -0.1
v 2.7 5 0
v 2.7 5 -0.1
v 3.2 4.3 0
v 3.2 4.3 -0.1
v 3.2 4.9 0
v 3.2 4.9 -0.1
v 3.4 4.8 0
v 3.4 4.8 -0.1
v 3.4 4.9 0
v 3.4 4.9 -0.1
v 3.4 5 0
v 3.4 5 -0.1
v 3.4 5.1 0
v 3.4 5.1 -0.1
v 3.5 4.9 0
v 3.5 4.9 -0.1
v 3.5 5 0
v 3.5 5 -0.1
v 0.6 4 0
v 0.6 4.1 0
v 0.7 3.9 0
v 0.7 4 0
v 0.7 4.1 0
v 0.7 4.2 0
v 0.8 3.9 0
v 0.8 4 0
v 0.8 4.1 0
v 0.8 4.2 0
v 0.8 4.5 0
v 0.8 4.8 0
v 0.9 4 0
v 0.9 4.1 0
v 0.9 4.5 0
v 0.9 4.6 0
v 0.9 4.7 0
v 0.9 4.8 0
v 0.9 5 0
v 1 4.2 0
v 1 4.6 0
v 1 4.7 0
v 1 4.9 0
v 1.1 4.2 0
v 1.1 4.3 0
v 1.1 4.4 0
v 1.1 4.9 0
v 1.2 4.1 0
v 1.2 4.2 0
v 1.2 4.6 0
v 1.2 4.8 0
v 1.2 4.9 0
v 1.2 5 0
v 1.3 4.4 0
v 1.3 4.5 0
v 1.3 4.6 0
v 1.3 4.7 0
v 1.4 4.4 0
v 1.4 4.5 0
v 1.5 4.5 0
v 1.5 4.6 0
v 1.5 4.7 0
v 1.5 4.8 0
v 1.6 4.3 0
v 1.6 4.4 0
v 1.6 4.6 0
v 1.6 4.9 0
v 1.7 4.1 0
v 1.7 4.2 0
v 1.7 4.5 0
v 1.7 4.7 0
v 1.8 4.2 0
v 1.8 4.3 0
v 1.8 4.5 0
v 1.8 4.6 0
v 1.8 4.7 0
v 1.8 4.9 0
v 1.9 4.5 0
v 1.9 4.6 0
v 1.9 4.8 0
v 1.9 4.9 0
v 1.9 5 0
v 2 4.3 0
v 2 4.5 0
v 2 4.6 0
v 2 4.7 0
v 2 4.8 0
v 2 4.9 0
v 2.1 4.3 0
v 2.1 4.5 0
v 2.1 4.6 0
v 2.1 4.7 0
v 2.1 4.8 0
v 2.1 4.9 0
v 2.2 4.5 0
v 2.2 4.6 0
v 2.2 4.8 0
v 2.2 4.9 0
v 2.2 5 0
v 2.3 4.2 0
v 2.3 4.3 0
v 2.3 4.5 0
v 2.3 4.6 0
v 2.3 4.7 0
v 2.3 4.9 0
v 2.4 4.7 0
v 2.4 5 0
v 2.5 4.2 0
v 2.5 4.9 0
v 2.6 4.2 0
v 2.6 4.9 0
v 2.7 4.1 0
v 2.7 4.3 0
v 2.7 4.4 0
v 2.7 4.8 0
v 2.7 4.9 0
v 2.7 5 0
v 2.8 4.5 0
v 2.8 4.7 0
v 3 4.5 0
v 3 4.7 0
v 3.1 4.4 0
v 3.1 4.8 0
v 3.2 4.3 0
v 3.2 4.9 0
v 3.2 5 0
v 3.3 4.8 0
v 3.3 4.9 0
v 3.3 5 0
v 3.3 5.1 0
v 3.4 4.8 0
v 3.4 4.9 0
v 3.4 5 0
v 3.4 5.1 0
v 3.5 4.9 0
v 3.5 5 0
v 0.6 4 -0.1
v 0.6 4.1 -0.1
v 0.7 3.9 -0.1
v 0.7 4 -0.1
v 0.7 4.1 -0.1
v 0.7 4.2 -0.1
v 0.8 3.9 -0.1
v 0.8 4 -0.1
v 0.8 4.1 -0.1
v 0.8 4.2 -0.1
v 0.8 4.5 -0.1
v 0.8 4.8 -0.1
v 0.9 4 -0.1
v 0.9 4.1 -0.1
v 0.9 4.5 -0.1
v 0.9 4.6 -0.1
v 0.9 4.7 -0.1
v 0.9 4.8 -0.1
v 0.9 5 -0.1
v 1 4.2 -0.1
v 1 4.6 -0.1
v 1 4.7 -0.1
v 1 4.9 -0.1
v 1.1 4.2 -0.1
v 1.1 4.3 -0.1
v 1.1 4.4 -0.1
v 1.1 4.9 -0.1
v 1.2 4.1 -0.1
v 1.2 4.2 -0.1
v 1.2 4.6 -0.1
v 1.2 4.8 -0.1
v 1.2 4.9 -0.1
v 1.2 5 -0.1
v 1.3 4.4 -0.1
v 1.3 4.5 -0.1
v 1.3 4.6 -0.1
v 1.3 4.7 -0.1
v 1.4 4.4 -0.1
v 1.4 4.5 -0.1
v 1.5 4.5 -0.1
v 1.5 4.6 -0.1
v 1.5 4.7 -0.1
v 1.5 4.8 -0.1
v 1.6 4.3 -0.1
v 1.6 4.4 -0.1
v 1.6 4.6 -0.1
v 1.6 4.9 -0.1
v 1.7 4.1 -0.1
v 1.7 4.2 -0.1
v 1.7 4.5 -0.1
v 1.7 4.7 -0.1
v 1.8 4.2 -0.1
v 1.8 4.3 -0.1
v 1.8 4.5 -0.1
v 1.8 4.6 -0.1
v 1.8 4.7 -0.1
v 1.8 4.9 -0.1
v 1.9 4.5 -0.1
v 1.9 4.6 -0.1
v 1.9 4.8 -0.1
v 1.9 4.9 -0.1
v 1.9 5 -0.1
v 2 4.3 -0.1
v 2 4.5 -0.1
v 2 4.6 -0.1
v 2 4.7 -0.1
v 2 4.8 -0.1
v 2 4.9 -0.1
v 2.1 4.3 -0.1
v 2.1 4.5 -0.1
v 2.1 4.6 -0.1
v 2.1 4.7 -0.1
v 2.1 4.8 -0.1
v 2.1 4.9 -0.1
v 2.2 4.5 -0.1
v 2.2 4.6 -0.1
v 2.2 4.8 -0.1
v 2.2 4.9 -0.1
v 2.2 5 -0.1
v 2.3 4.2 -0.1
v 2.3 4.3 -0.1
v 2.3 4.5 -0.1
v 2.3 4.6 -0.1
v 2.3 4.7 -0.1
v 2.3 4.9 -0.1
v 2.4 4.7 -0.1
v 2.4 5 -0.1
v 2.5 4.2 -0.1
v 2.5 4.9 -0.1
v 2.6 4.2 -0.1
v 2.6 4.9 -0.1
v 2.7 4.1 -0.1
v 2.7 4.3 -0.1
v 2.7 4.4 -0.1
v 2.7 4.8 -0.1
v 2.7 4.9 -0.1
v 2.7 5 -0.1
v 2.8 4.5 -0.1
v 2.8 4.7 -0.1
v 3 4.5 -0.1
v 3 4.7 -0.1
v 3.1 4.4 -0.1
v 3.1 4.8 -0.1
v 3.2 4.3 -0.1
v 3.2 4.9 -0.1
v 3.2 5 -0.1
v 3.3 4.8 -0.1
v 3.3 4.9 -0.1
v 3.3 5 -0.1
v 3.3 5.1 -0.1
v 3.4 4.8 -0.1
v 3.4 4.9 -0.1
v 3.4 5 -0.1
v 3.4 5.1 -0.1
v 3.5 4.9 -0.1
v 3.5 5 -0.1
v 0.7 3.9 0
v 0.8 3.9 0
v 0.7 3.9 -0.1
v 0.8 3.9 -0.1
v 0.6 4 0
v 0.7 4 0
v 0.8 4 0
v 0.9 4 0
v 0.6 4 -0.1
v 0.7 4 -0.1
v 0.8 4 -0.1
v 0.9 4 -0.1
v 0.9 4.1 0
v 1.2 4.1 0
v 1.7 4.1 0
v 2.7 4.1 0
v 0.9 4.1 -0.1
v 1.2 4.1 -0.1
v 1.7 4.1 -0.1
v 2.7 4.1 -0.1
v 1.2 4.2 0
v 1.7 4.2 0
v 1.2 4.2 -0.1
v 1.7 4.2 -0.1
v 2.7 4.3 0
v 3.2 4.3 0
v 2.7 4.3 -0.1
v 3.2 4.3 -0.1
v 0.8 4.5 0
v 0.9 4.5 0
v 0.8 4.5 -0.1
v 0.9 4.5 -0.1
v 1.5 4.6 0
v 1.6 4.6 0
v 1.5 4.6 -0.1
v 1.6 4.6 -0.1
v 3.3 4.8 0
v 3.4 4.8 0
v 3.3 4.8 -0.1
v 3.4 4.8 -0.1
v 3.2 4.9 0
v 3.3 4.9 0
v 3.4 4.9 0
v 3.5 4.9 0
v 3.2 4.9 -0.1
v 3.3 4.9 -0.1
v 3.4 4.9 -0.1
v 3.5 4.9 -0.1
v 0.6 4.1 0
v 0.7 4.1 0
v 0.8 4.1 0
v 0.9 4.1 0
v 0.6 4.1 -0.1
v 0.7 4.1 -0.1
v 0.8 4.1 -0.1
v 0.9 4.1 -0.1
v 0.7 4.2 0
v 0.8 4.2 0
v 0.7 4.2 -0.1
v 0.8 4.2 -0.1
v 1.5 4.5 0
v 1.7 4.5 0
v 1.5 4.5 -0.1
v 1.7 4.5 -0.1
v 1.7 4.7 0
v 1.8 4.7 0
v 2.3 4.7 0
v 2.4 4.7 0
v 1.7 4.7 -0.1
v 1.8 4.7 -0.1
v 2.3 4.7 -0.1
v 2.4 4.7 -0.1
v 0.8 4.8 0
v 0.9 4.8 0
v 0.8 4.8 -0.1
v 0.9 4.8 -0.1
v 1.2 4.9 0
v 1.6 4.9 0
v 1.8 4.9 0
v 1.9 4.9 0
v 2.2 4.9 0
v 2.3 4.9 0
v 2.7 4.9 0
v 3.2 4.9 0
v 1.2 4.9 -0.1
v 1.6 4.9 -0.1
v 1.8 4.9 -0.1
v 1.9 4.9 -0.1
v 2.2 4.9 -0.1
v 2.3 4.9 -0.1
v 2.7 4.9 -0.1
v 3.2 4.9 -0.1
v 0.9 5 0
v 1.2 5 0
v 1.9 5 0
v 2.2 5 0
v 2.4 5 0
v 2.7 5 0
v 3.2 5 0
v 3.3 5 0
v 3.4 5 0
v 3.5 5 0
v 0.9 5 -0.1
v 1.2 5 -0.1
v 1.9 5 -0.1
v 2.2 5 -0.1
v 2.4 5 -0.1
v 2.7 5 -0.1
v 3.2 5 -0.1
v 3.3 5 -0.1
v 3.4 5 -0.1
v 3.5 5 -0.1
v 3.3 5.1 0
v 3.4 5.1 0
v 3.3 5.1 -0.1
v 3.4 5.1 -0.1

# faces
f 3/1/1 2/1/1 1/1/1
f 4/1/1 2/1/1 3/1/1
f 7/1/1 6/1/1 5/1/1
f 8/1/1 6/1/1 7/1/1
f 11/1/1 10/1/1 9/1/1
f 12/1/1 10/1/1 11/1/1
f 15/3/1 14/3/1 13/3/1
f 16/3/1 14/3/1 15/3/1
f 19/3/1 18/3/1 17/3/1
f 20/3/1 18/3/1 19/3/1
f 23/3/1 22/3/1 21/3/1
f 24/3/1 22/3/1 23/3/1
f 27/3/1 26/3/1 25/3/1
f 28/3/1 26/3/1 27/3/1
f 31/3/1 30/3/1 29/3/1
f 32/3/1 30/3/1 31/3/1
f 35/3/1 34/3/1 33/3/1
f 36/3/1 34/3/1 35/3/1
f 39/3/1 38/3/1 37/3/1
f 40/3/1 38/3/1 39/3/1
f 43/3/1 42/3/1 41/3/1
f 44/3/1 42/3/1 43/3/1
f 47/1/1 46/1/1 45/1/1
f 48/1/1 46/1/1 47/1/1
f 51/1/1 50/1/1 49/1/1
f 52/1/1 50/1/1 51/1/1
f 55/1/1 54/1/1 53/1/1
f 56/1/1 54/1/1 55/1/1
f 57/1/2 58/1/2 59/1/2
f 59/1/2 58/1/2 60/1/2
f 61/1/2 62/1/2 63/1/2
f 63/1/2 62/1/2 64/1/2
f 65/1/2 66/1/2 67/1/2
f 67/1/2 66/1/2 68/1/2
f 69/3/2 70/3/2 71/3/2
f 71/3/2 70/3/2 72/3/2
f 73/3/2 74/3/2 75/3/2
f 75/3/2 74/3/2 76/3/2
f 77/3/2 78/3/2 79/3/2
f 79/3/2 78/3/2 80/3/2
f 81/3/2 82/3/2 83/3/2
f 83/3/2 82/3/2 84/3/2
f 85/3/2 86/3/2 87/3/2
f 87/3/2 86/3/2 88/3/2
f 89/3/2 90/3/2 91/3/2
f 91/3/2 90/3/2 92/3/2
f 93/3/2 94/3/2 95/3/2
f 95/3/2 94/3/2 96/3/2
f 97/3/2 98/3/2 99/3/2
f 99/3/2 98/3/2 100/3/2
f 101/3/2 102/3/2 103/3/2
f 103/3/2 102/3/2 104/3/2
f 105/1/2 106/1/2 107/1/2
f 107/1/2 106/1/2 108/1/2
f 109/1/2 110/1/2 111/1/2
f 111/1/2 110/1/2 112/1/2
f 113/1/2 114/1/2 115/1/2
f 115/1/2 114/1/2 116/1/2
f 120/1/3 118/1/3 117/1/3
f 121/1/3 118/1/3 120/1/3
f 123/1/3 120/1/3 119/1/3
f 124/2/3 121/2/3 120/2/3
f 124/1/3 120/1/3 123/1/3
f 125/1/3 122/1/3 121/1/3
f 125/2/3 121/2/3 124/2/3
f 126/1/3 122/1/3 125/1/3
f 129/1/3 125/1/3 124/1/3
f 130/1/3 125/1/3 129/1/3
f 131/3/3 128/3/3 127/3/3
f 132/3/3 128/3/3 131/3/3
f 133/3/3 128/3/3 132/3/3
f 134/3/3 128/3/3 133/3/3
f 136/3/3 131/3/3 130/3/3
f 136/3/3 132/3/3 131/3/3
f 137/4/3 133/4/3 132/4/3
f 137/3/3 132/3/3 136/3/3
f 138/3/3 135/3/3 134/3/3
f 138/4/3 133/4/3 137/4/3
f 138/3/3 134/3/3 133/3/3
f 139/3/3 135/3/3 138/3/3
f 140/4/3 137/4/3 136/4/3
f 140/3/3 136/3/3 130/3/3
f 140/4/3 139/4/3 138/4/3
f 140/4/3 138/4/3 137/4/3
f 141/4/3 139/4/3 140/4/3
f 142/4/3 139/4/3 141/4/3
f 143/3/3 135/3/3 139/3/3
f 143/4/3 139/4/3 142/4/3
f 144/3/3 140/3/3 130/3/3
f 144/3/3 141/3/3 140/3/3
f 145/3/3 141/3/3 144/3/3
f 146/3/3 143/3/3 142/3/3
f 147/3/3 143/3/3 146/3/3
f 148/3/3 135/3/3 143/3/3
f 148/3/3 143/3/3 147/3/3
f 149/3/3 135/3/3 148/3/3
f 150/4/3 142/4/3 141/4/3
f 150/3/3 146/3/3 142/3/3
f 151/3/3 146/3/3 150/3/3
f 152/4/3 147/4/3 146/4/3
f 152/3/3 146/3/3 151/3/3
f 153/4/3 147/4/3 152/4/3
f 154/4/3 151/4/3 150/4/3
f 154/4/3 150/4/3 141/4/3
f 155/3/3 153/3/3 152/3/3
f 155/4/3 151/4/3 154/4/3
f 155/3/3 152/3/3 151/3/3
f 156/3/3 155/3/3 154/3/3
f 156/3/3 153/3/3 155/3/3
f 157/3/3 153/3/3 156/3/3
f 158/4/3 147/4/3 153/4/3
f 158/3/3 153/3/3 157/3/3
f 159/3/3 148/3/3 147/3/3
f 159/4/3 147/4/3 158/4/3
f 160/3/3 141/3/3 145/3/3
f 160/4/3 154/4/3 141/4/3
f 161/3/3 156/3/3 154/3/3
f 161/4/3 154/4/3 160/4/3
f 162/3/3 159/3/3 158/3/3
f 162/3/3 158/3/3 157/3/3
f 163/3/3 148/3/3 159/3/3
f 163/3/3 159/3/3 162/3/3
f 165/3/3 161/3/3 160/3/3
f 165/3/3 160/3/3 145/3/3
f 166/3/3 156/3/3 161/3/3
f 166/3/3 161/3/3 165/3/3
f 168/3/3 165/3/3 164/3/3
f 168/3/3 167/3/3 166/3/3
f 168/3/3 166/3/3 165/3/3
f 169/3/3 167/3/3 168/3/3
f 170/3/3 167/3/3 169/3/3
f 171/3/3 167/3/3 170/3/3
f 172/3/3 167/3/3 171/3/3
f 174/3/3 170/3/3 169/3/3
f 174/4/3 171/4/3 170/4/3
f 175/3/3 173/3/3 172/3/3
f 175/4/3 171/4/3 174/4/3
f 175/3/3 172/3/3 171/3/3
f 176/3/3 173/3/3 175/3/3
f 177/3/3 173/3/3 176/3/3
f 179/4/3 169/4/3 168/4/3
f 179/3/3 174/3/3 169/3/3
f 179/3/3 175/3/3 174/3/3
f 180/3/3 175/3/3 179/3/3
f 181/4/3 176/4/3 175/4/3
f 181/3/3 175/3/3 180/3/3
f 182/4/3 176/4/3 181/4/3
f 183/3/3 177/3/3 176/3/3
f 183/4/3 176/4/3 182/4/3
f 183/3/3 178/3/3 177/3/3
f 184/3/3 178/3/3 183/3/3
f 185/4/3 180/4/3 179/4/3
f 185/4/3 179/4/3 168/4/3
f 186/3/3 182/3/3 181/3/3
f 186/4/3 180/4/3 185/4/3
f 186/3/3 181/3/3 180/3/3
f 187/3/3 182/3/3 186/3/3
f 188/4/3 183/4/3 182/4/3
f 188/3/3 182/3/3 187/3/3
f 188/4/3 184/4/3 183/4/3
f 189/4/3 184/4/3 188/4/3
f 190/3/3 178/3/3 184/3/3
f 190/4/3 184/4/3 189/4/3
f 191/3/3 187/3/3 186/3/3
f 191/3/3 186/3/3 185/3/3
f 192/4/3 189/4/3 188/4/3
f 192/3/3 187/3/3 191/3/3
f 192/4/3 188/4/3 187/4/3
f 193/3/3 190/3/3 189/3/3
f 193/4/3 189/4/3 192/4/3
f 194/3/3 178/3/3 190/3/3
f 194/3/3 190/3/3 193/3/3
f 195/3/3 178/3/3 194/3/3
f 196/4/3 185/4/3 168/4/3
f 196/3/3 168/3/3 164/3/3
f 197/3/3 191/3/3 185/3/3
f 197/4/3 185/4/3 196/4/3
f 198/4/3 192/4/3 191/4/3
f 198/3/3 191/3/3 197/3/3
f 199/3/3 194/3/3 193/3/3
f 199/4/3 192/4/3 198/4/3
f 199/3/3 193/3/3 192/3/3
f 200/3/3 194/3/3 199/3/3
f 201/3/3 194/3/3 200/3/3
f 202/3/3 198/3/3 197/3/3
f 202/3/3 197/3/3 196/3/3
f 202/3/3 200/3/3 199/3/3
f 202/3/3 199/3/3 198/3/3
f 204/3/3 202/3/3 196/3/3
f 204/3/3 203/3/3 202/3/3
f 204/3/3 196/3/3 164/3/3
f 205/3/3 203/3/3 204/3/3
f 206/3/3 204/3/3 164/3/3
f 206/4/3 205/4/3 204/4/3
f 207/3/3 203/3/3 205/3/3
f 207/4/3 205/4/3 206/4/3
f 208/3/3 206/3/3 164/3/3
f 208/3/3 207/3/3 206/3/3
f 209/3/3 207/3/3 208/3/3
f 210/3/3 207/3/3 209/3/3
f 211/3/3 207/3/3 210/3/3
f 212/3/3 203/3/3 207/3/3
f 212/3/3 207/3/3 211/3/3
f 213/3/3 203/3/3 212/3/3
f 214/4/3 211/4/3 210/4/3
f 215/4/3 211/4/3 214/4/3
f 216/4/3 214/4/3 210/4/3
f 216/3/3 215/3/3 214/3/3
f 217/4/3 211/4/3 215/4/3
f 217/3/3 215/3/3 216/3/3
f 218/3/3 210/3/3 209/3/3
f 218/4/3 216/4/3 210/4/3
f 218/4/3 217/4/3 216/4/3
f 219/3/3 212/3/3 211/3/3
f 219/4/3 217/4/3 218/4/3
f 219/4/3 211/4/3 217/4/3
f 220/3/3 218/3/3 209/3/3
f 220/3/3 219/3/3 218/3/3
f 221/3/3 212/3/3 219/3/3
f 221/3/3 219/3/3 220/3/3
f 224/1/3 222/1/3 221/1/3
f 225/1/3 222/1/3 224/1/3
f 227/1/3 224/1/3 223/1/3
f 228/2/3 225/2/3 224/2/3
f 228/1/3 224/1/3 227/1/3
f 229/1/3 226/1/3 225/1/3
f 229/2/3 225/2/3 228/2/3
f 230/1/3 226/1/3 229/1/3
f 231/1/3 229/1/3 228/1/3
f 232/1/3 229/1/3 231/1/3
f 233/1/4 234/1/4 236/1/4
f 236/1/4 234/1/4 237/1/4
f 235/1/4 236/1/4 239/1/4
f 236/2/4 237/2/4 240/2/4
f 239/1/4 236/1/4 240/1/4
f 237/1/4 238/1/4 241/1/4
f 240/2/4 237/2/4 241/2/4
f 241/1/4 238/1/4 242/1/4
f 240/1/4 241/1/4 245/1/4
f 245/1/4 241/1/4 246/1/4
f 243/3/4 244/3/4 247/3/4
f 247/3/4 244/3/4 248/3/4
f 248/3/4 244/3/4 249/3/4
f 249/3/4 244/3/4 250/3/4
f 246/3/4 247/3/4 252/3/4
f 247/3/4 248/3/4 252/3/4
f 248/4/4 249/4/4 253/4/4
f 252/3/4 248/3/4 253/3/4
f 250/3/4 251/3/4 254/3/4
f 253/4/4 249/4/4 254/4/4
f 249/3/4 250/3/4 254/3/4
f 254/3/4 251/3/4 255/3/4
f 252/4/4 253/4/4 256/4/4
f 246/3/4 252/3/4 256/3/4
f 254/4/4 255/4/4 256/4/4
f 253/4/4 254/4/4 256/4/4
f 256/4/4 255/4/4 257/4/4
f 257/4/4 255/4/4 258/4/4
f 255/3/4 251/3/4 259/3/4
f 258/4/4 255/4/4 259/4/4
f 246/3/4 256/3/4 260/3/4
f 256/3/4 257/3/4 260/3/4
f 260/3/4 257/3/4 261/3/4
f 258/3/4 259/3/4 262/3/4
f 262/3/4 259/3/4 263/3/4
f 259/3/4 251/3/4 264/3/4
f 263/3/4 259/3/4 264/3/4
f 264/3/4 251/3/4 265/3/4
f 257/4/4 258/4/4 266/4/4
f 258/3/4 262/3/4 266/3/4
f 266/3/4 262/3/4 267/3/4
f 262/4/4 263/4/4 268/4/4
f 267/3/4 262/3/4 268/3/4
f 268/4/4 263/4/4 269/4/4
f 266/4/4 267/4/4 270/4/4
f 257/4/4 266/4/4 270/4/4
f 268/3/4 269/3/4 271/3/4
f 270/4/4 267/4/4 271/4/4
f 267/3/4 268/3/4 271/3/4
f 270/3/4 271/3/4 272/3/4
f 271/3/4 269/3/4 272/3/4
f 272/3/4 269/3/4 273/3/4
f 269/4/4 263/4/4 274/4/4
f 273/3/4 269/3/4 274/3/4
f 263/3/4 264/3/4 275/3/4
f 274/4/4 263/4/4 275/4/4
f 261/3/4 257/3/4 276/3/4
f 257/4/4 270/4/4 276/4/4
f 270/3/4 272/3/4 277/3/4
f 276/4/4 270/4/4 277/4/4
f 274/3/4 275/3/4 278/3/4
f 273/3/4 274/3/4 278/3/4
f 275/3/4 264/3/4 279/3/4
f 278/3/4 275/3/4 279/3/4
f 276/3/4 277/3/4 281/3/4
f 261/3/4 276/3/4 281/3/4
f 277/3/4 272/3/4 282/3/4
f 281/3/4 277/3/4 282/3/4
f 280/3/4 281/3/4 284/3/4
f 282/3/4 283/3/4 284/3/4
f 281/3/4 282/3/4 284/3/4
f 284/3/4 283/3/4 285/3/4
f 285/3/4 283/3/4 286/3/4
f 286/3/4 283/3/4 287/3/4
f 287/3/4 283/3/4 288/3/4
f 285/3/4 286/3/4 290/3/4
f 286/4/4 287/4/4 290/4/4
f 288/3/4 289/3/4 291/3/4
f 290/4/4 287/4/4 291/4/4
f 287/3/4 288/3/4 291/3/4
f 291/3/4 289/3/4 292/3/4
f 292/3/4 289/3/4 293/3/4
f 284/4/4 285/4/4 295/4/4
f 285/3/4 290/3/4 295/3/4
f 290/3/4 291/3/4 295/3/4
f 295/3/4 291/3/4 296/3/4
f 291/4/4 292/4/4 297/4/4
f 296/3/4 291/3/4 297/3/4
f 297/4/4 292/4/4 298/4/4
f 292/3/4 293/3/4 299/3/4
f 298/4/4 292/4/4 299/4/4
f 293/3/4 294/3/4 299/3/4
f 299/3/4 294/3/4 300/3/4
f 295/4/4 296/4/4 301/4/4
f 284/4/4 295/4/4 301/4/4
f 297/3/4 298/3/4 302/3/4
f 301/4/4 296/4/4 302/4/4
f 296/3/4 297/3/4 302/3/4
f 302/3/4 298/3/4 303/3/4
f 298/4/4 299/4/4 304/4/4
f 303/3/4 298/3/4 304/3/4
f 299/4/4 300/4/4 304/4/4
f 304/4/4 300/4/4 305/4/4
f 300/3/4 294/3/4 306/3/4
f 305/4/4 300/4/4 306/4/4
f 302/3/4 303/3/4 307/3/4
f 301/3/4 302/3/4 307/3/4
f 304/4/4 305/4/4 308/4/4
f 307/3/4 303/3/4 308/3/4
f 303/4/4 304/4/4 308/4/4
f 305/3/4 306/3/4 309/3/4
f 308/4/4 305/4/4 309/4/4
f 306/3/4 294/3/4 310/3/4
f 309/3/4 306/3/4 310/3/4
f 310/3/4 294/3/4 311/3/4
f 284/4/4 301/4/4 312/4/4
f 280/3/4 284/3/4 312/3/4
f 301/3/4 307/3/4 313/3/4
f 312/4/4 301/4/4 313/4/4
f 307/4/4 308/4/4 314/4/4
f 313/3/4 307/3/4 314/3/4
f 309/3/4 310/3/4 315/3/4
f 314/4/4 308/4/4 315/4/4
f 308/3/4 309/3/4 315/3/4
f 315/3/4 310/3/4 316/3/4
f 316/3/4 310/3/4 317/3/4
f 313/3/4 314/3/4 318/3/4
f 312/3/4 313/3/4 318/3/4
f 315/3/4 316/3/4 318/3/4
f 314/3/4 315/3/4 318/3/4
f 312/3/4 318/3/4 320/3/4
f 318/3/4 319/3/4 320/3/4
f 280/3/4 312/3/4 320/3/4
f 320/3/4 319/3/4 321/3/4
f 280/3/4 320/3/4 322/3/4
f 320/4/4 321/4/4 322/4/4
f 321/3/4 319/3/4 323/3/4
f 322/4/4 321/4/4 323/4/4
f 280/3/4 322/3/4 324/3/4
f 322/3/4 323/3/4 324/3/4
f 324/3/4 323/3/4 325/3/4
f 325/3/4 323/3/4 326/3/4
f 326/3/4 323/3/4 327/3/4
f 323/3/4 319/3/4 328/3/4
f 327/3/4 323/3/4 328/3/4
f 328/3/4 319/3/4 329/3/4
f 326/4/4 327/4/4 330/4/4
f 330/4/4 327/4/4 331/4/4
f 326/4/4 330/4/4 332/4/4
f 330/3/4 331/3/4 332/3/4
f 331/4/4 327/4/4 333/4/4
f 332/3/4 331/3/4 333/3/4
f 325/3/4 326/3/4 334/3/4
f 326/4/4 332/4/4 334/4/4
f 332/4/4 333/4/4 334/4/4
f 327/3/4 328/3/4 335/3/4
f 334/4/4 333/4/4 335/4/4
f 333/4/4 327/4/4 335/4/4
f 325/3/4 334/3/4 336/3/4
f 334/3/4 335/3/4 336/3/4
f 335/3/4 328/3/4 337/3/4
f 336/3/4 335/3/4 337/3/4
f 337/1/4 338/1/4 340/1/4
f 340/1/4 338/1/4 341/1/4
f 339/1/4 340/1/4 343/1/4
f 340/2/4 341/2/4 344/2/4
f 343/1/4 340/1/4 344/1/4
f 341/1/4 342/1/4 345/1/4
f 344/2/4 341/2/4 345/2/4
f 345/1/4 342/1/4 346/1/4
f 344/1/4 345/1/4 347/1/4
f 347/1/4 345/1/4 348/1/4
f 351/1/5 350/1/5 349/1/5
f 352/1/5 350/1/5 351/1/5
f 357/1/5 354/1/5 353/1/5
f 358/1/5 354/1/5 357/1/5
f 359/1/5 356/1/5 355/1/5
f 360/1/5 356/1/5 359/1/5
f 365/3/5 362/3/5 361/3/5
f 366/3/5 362/3/5 365/3/5
f 367/3/5 364/3/5 363/3/5
f 368/3/5 364/3/5 367/3/5
f 371/3/5 370/3/5 369/3/5
f 372/3/5 370/3/5 371/3/5
f 375/3/5 374/3/5 373/3/5
f 376/3/5 374/3/5 375/3/5
f 379/3/5 378/3/5 377/3/5
f 380/3/5 378/3/5 379/3/5
f 383/3/5 382/3/5 381/3/5
f 384/3/5 382/3/5 383/3/5
f 387/1/5 386/1/5 385/1/5
f 388/1/5 386/1/5 387/1/5
f 393/1/5 390/1/5 389/1/5
f 394/1/5 390/1/5 393/1/5
f 395/1/5 392/1/5 391/1/5
f 396/1/5 392/1/5 395/1/5
f 397/1/6 398/1/6 401/1/6
f 401/1/6 398/1/6 402/1/6
f 399/1/6 400/1/6 403/1/6
f 403/1/6 400/1/6 404/1/6
f 405/1/6 406/1/6 407/1/6
f 407/1/6 406/1/6 408/1/6
f 409/3/6 410/3/6 411/3/6
f 411/3/6 410/3/6 412/3/6
f 413/3/6 414/3/6 417/3/6
f 417/3/6 414/3/6 418/3/6
f 415/3/6 416/3/6 419/3/6
f 419/3/6 416/3/6 420/3/6
f 421/3/6 422/3/6 423/3/6
f 423/3/6 422/3/6 424/3/6
f 425/3/6 426/3/6 433/3/6
f 433/3/6 426/3/6 434/3/6
f 427/3/6 428/3/6 435/3/6
f 435/3/6 428/3/6 436/3/6
f 429/3/6 430/3/6 437/3/6
f 437/3/6 430/3/6 438/3/6
f 431/3/6 432/3/6 439/3/6
f 439/3/6 432/3/6 440/3/6
f 441/3/6 442/3/6 451/3/6
f 451/3/6 442/3/6 452/3/6
f 443/3/6 444/3/6 453/3/6
f 453/3/6 444/3/6 454/3/6
f 445/3/6 446/3/6 455/3/6
f 455/3/6 446/3/6 456/3/6
f 447/1/6 448/1/6 457/1/6
f 457/1/6 448/1/6 458/1/6
f 449/1/6 450/1/6 459/1/6
f 459/1/6 450/1/6 460/1/6
f 461/1/6 462/1/6 463/1/6
f 463/1/6 462/1/6 464/1/6
